<svg viewBox="0 0 307.341 219.282" xmlns="http://www.w3.org/2000/svg">
  <g fill-opacity=".05">
    <path d="M40.64 54.182h-6.773l3.387-5.867zM36.407 19.786h-6.774l3.387-5.867zM8.467 13.758h6.774l-3.387 5.867zM19.474 19.786H12.7l3.387-5.867zM0 13.758h6.774l-3.387 5.867zM11.007 19.786H4.233l3.387-5.867zM4.233 20.637h6.774L7.62 26.504zM15.24 26.665H8.468l3.387-5.866zM42.333 13.758h6.774l-3.387 5.867zM33.867 13.758h6.774l-3.387 5.867zM44.874 19.786H38.1l3.387-5.867zM12.7 20.637h6.774l-3.387 5.867zM23.707 26.665h-6.774L20.32 20.8zM21.167 20.637h6.774l-3.387 5.867zM6.774 26.665H0L3.387 20.8zM25.4 0h6.774l-3.387 5.866zM36.407 6.028h-6.774L33.02.16zM16.933 0h6.774L20.32 5.866zM27.94 6.028h-6.773L24.554.16zM19.474 6.028H12.7L16.087.16zM0 0h6.774L3.387 5.866zM29.633 6.88h6.774l-3.387 5.866zM40.64 12.907h-6.773l3.387-5.867zM42.333 0h6.774L45.72 5.866zM33.867 0h6.774l-3.387 5.866zM44.874 6.028H38.1L41.487.16zM49.107 12.907h-6.774L45.72 7.04zM12.7 6.88h6.774l-3.387 5.866zM23.707 12.907h-6.774L20.32 7.04zM21.167 6.88h6.774l-3.387 5.866zM32.174 12.907H25.4l3.387-5.867zM6.774 12.907H0L3.387 7.04zM93.133 27.517h6.774l-3.387 5.866zM104.14 33.544h-6.773l3.387-5.866zM80.433 20.637h6.774l-3.387 5.867zM88.9 20.637h6.774l-3.387 5.867zM99.907 26.665h-6.774L96.52 20.8zM76.2 0h6.774l-3.387 5.866zM87.207 6.028h-6.774L83.82.16zM80.433 6.88h6.774l-3.387 5.866zM93.133 0h6.774L96.52 5.866zM84.667 0h6.774l-3.387 5.866zM95.674 6.028H88.9L92.287.16zM82.974 12.907H76.2l3.387-5.867zM101.6 27.517h6.774l-3.387 5.866zM112.607 33.544h-6.774l3.387-5.866zM143.933 27.517h6.774l-3.387 5.866zM154.94 33.544h-6.773l3.387-5.866zM135.467 27.517h6.774l-3.387 5.866zM146.474 33.544H139.7l3.387-5.866zM142.24 26.665h-6.773l3.387-5.866zM139.7 20.637h6.774l-3.387 5.867zM150.707 26.665h-6.774l3.387-5.866zM148.167 20.637h6.774l-3.387 5.867zM27.94 102.336h-6.773l3.387-5.867zM8.467 96.308h6.774l-3.387 5.867zM19.474 102.336H12.7l3.387-5.867zM0 96.308h6.774l-3.387 5.867zM11.007 102.336H4.233l3.387-5.867zM12.7 103.187h6.774l-3.387 5.867zM23.707 109.215h-6.774l3.387-5.866zM21.167 103.187h6.774l-3.387 5.867zM16.933 82.55h6.774l-3.387 5.866zM8.467 82.55h6.774l-3.387 5.866zM19.474 88.578H12.7l3.387-5.867zM0 82.55h6.774l-3.387 5.866zM11.007 88.578H4.233L7.62 82.71zM4.233 89.43h6.774L7.62 95.295zM15.24 95.457H8.468l3.387-5.867zM42.333 82.55h6.774l-3.387 5.866zM53.34 88.578h-6.773l3.387-5.867zM44.874 88.578H38.1l3.387-5.867zM49.107 95.457h-6.774l3.387-5.867zM12.7 89.43h6.774l-3.387 5.866zM21.167 89.43h6.774l-3.387 5.866zM6.774 95.457H0l3.387-5.867zM25.4 68.792h6.774l-3.387 5.866zM36.407 74.82h-6.774l3.387-5.867zM16.933 68.792h6.774l-3.387 5.866zM27.94 74.82h-6.773l3.387-5.867zM8.467 68.792h6.774l-3.387 5.866zM19.474 74.82H12.7l3.387-5.867zM0 68.792h6.774l-3.387 5.866zM11.007 74.82H4.233l3.387-5.867zM42.333 68.792h6.774l-3.387 5.866zM33.867 68.792h6.774l-3.387 5.866zM44.874 74.82H38.1l3.387-5.867zM38.1 75.67h6.774l-3.387 5.867zM49.107 81.698h-6.774l3.387-5.866zM46.567 75.67h6.774l-3.387 5.867zM36.407 61.06h-6.774l3.387-5.866zM4.233 61.912h6.774L7.62 67.78zM15.24 67.94H8.468l3.387-5.866zM29.633 61.912h6.774L33.02 67.78zM42.333 55.033h6.774L45.72 60.9zM53.34 61.06h-6.773l3.387-5.866zM33.867 55.033h6.774L37.254 60.9zM44.874 61.06H38.1l3.387-5.866zM12.7 61.912h6.774l-3.387 5.867zM21.167 61.912h6.774l-3.387 5.867zM32.174 67.94H25.4l3.387-5.866zM46.567 61.912h6.774l-3.387 5.867zM6.774 67.94H0l3.387-5.866zM104.14 102.336h-6.773l3.387-5.867zM97.367 103.187h6.774l-3.387 5.867zM50.8 82.55h6.774l-3.387 5.866zM97.367 89.43h6.774l-3.387 5.866zM50.8 68.792h6.774l-3.387 5.866zM88.9 75.67h6.774l-3.387 5.867zM101.6 96.308h6.774l-3.387 5.867zM112.607 102.336h-6.774l3.387-5.867zM105.833 103.187h6.774l-3.387 5.867zM108.374 109.215H101.6l3.387-5.866zM105.833 89.43h6.774l-3.387 5.866zM108.374 95.457H101.6l3.387-5.867zM121.074 74.82H114.3l3.387-5.867zM101.6 68.792h6.774l-3.387 5.866zM112.607 74.82h-6.774l3.387-5.867zM110.067 55.033h6.774l-3.387 5.867zM121.074 61.06H114.3l3.387-5.866zM101.6 55.033h6.774l-3.387 5.867zM112.607 61.06h-6.774l3.387-5.866zM105.833 61.912h6.774l-3.387 5.867zM116.84 67.94h-6.773l3.387-5.866zM114.3 61.912h6.774l-3.387 5.867zM108.374 67.94H101.6l3.387-5.866zM193.04 54.182h-6.773l3.387-5.867zM171.874 33.544H165.1l3.387-5.866zM188.807 19.786h-6.774l3.387-5.867zM194.733 13.758h6.774l-3.387 5.867zM186.267 13.758h6.774l-3.387 5.867zM197.274 19.786H190.5l3.387-5.867zM173.567 20.637h6.774l-3.387 5.867zM177.8 0h6.774l-3.387 5.866zM188.807 6.028h-6.774L185.42.16zM169.333 0h6.774l-3.387 5.866zM180.34 6.028h-6.773L176.954.16zM171.874 6.028H165.1L168.487.16zM152.4 0h6.774l-3.387 5.866zM182.033 6.88h6.774l-3.387 5.866zM193.04 12.907h-6.773l3.387-5.867zM194.733 0h6.774l-3.387 5.866zM186.267 0h6.774l-3.387 5.866zM197.274 6.028H190.5L193.887.16zM201.507 12.907h-6.774l3.387-5.867zM165.1 6.88h6.774l-3.387 5.866zM176.107 12.907h-6.774l3.387-5.867zM173.567 6.88h6.774l-3.387 5.866zM184.574 12.907H177.8l3.387-5.867zM159.174 12.907H152.4l3.387-5.867zM228.6 13.758h6.774l-3.387 5.867zM239.607 19.786h-6.774l3.387-5.867zM232.833 20.637h6.774l-3.387 5.867zM243.84 26.665h-6.773l3.387-5.866zM237.067 13.758h6.774l-3.387 5.867zM241.3 20.637h6.774l-3.387 5.867zM252.307 26.665h-6.774l3.387-5.866zM228.6 0h6.774l-3.387 5.866zM239.607 6.028h-6.774L236.22.16zM232.833 6.88h6.774l-3.387 5.866zM245.533 0h6.774l-3.387 5.866zM237.067 0h6.774l-3.387 5.866zM248.074 6.028H241.3L244.687.16zM235.374 12.907H228.6l3.387-5.867zM279.4 41.275h6.774l-3.387 5.866zM290.407 47.303h-6.774l3.387-5.867zM281.94 47.303h-6.773l3.387-5.867zM298.874 47.303H292.1l3.387-5.867zM283.633 34.396h6.774l-3.387 5.866zM294.64 40.423h-6.773l3.387-5.866zM296.333 27.517h6.774l-3.387 5.866zM307.34 33.544h-6.773l3.387-5.866zM287.867 27.517h6.774l-3.387 5.866zM298.874 33.544H292.1l3.387-5.866zM292.1 34.396h6.774l-3.387 5.866zM303.107 40.423h-6.774l3.387-5.866zM286.174 40.423H279.4l3.387-5.866zM300.566 34.396h6.774l-3.387 5.866zM294.64 26.665h-6.773l3.387-5.866zM292.1 20.637h6.774l-3.387 5.867zM303.107 26.665h-6.774l3.387-5.866zM300.566 20.637h6.774l-3.387 5.867zM180.34 102.336h-6.773l3.387-5.867zM160.867 96.308h6.774l-3.387 5.867zM171.874 102.336H165.1l3.387-5.867zM152.4 96.308h6.774l-3.387 5.867zM163.407 102.336h-6.774l3.387-5.867zM194.733 96.308h6.774l-3.387 5.867zM205.74 102.336h-6.773l3.387-5.867zM197.274 102.336H190.5l3.387-5.867zM165.1 103.187h6.774l-3.387 5.867zM176.107 109.215h-6.774l3.387-5.866zM173.567 103.187h6.774l-3.387 5.867zM169.333 82.55h6.774l-3.387 5.866zM194.733 82.55h6.774l-3.387 5.866zM205.74 88.578h-6.773l3.387-5.867zM197.274 88.578H190.5l3.387-5.867zM201.507 95.457h-6.774l3.387-5.867zM173.567 89.43h6.774l-3.387 5.866zM177.8 68.792h6.774l-3.387 5.866zM188.807 74.82h-6.774l3.387-5.867zM169.333 68.792h6.774l-3.387 5.866zM180.34 74.82h-6.773l3.387-5.867zM160.867 68.792h6.774l-3.387 5.866zM171.874 74.82H165.1l3.387-5.867zM152.4 68.792h6.774l-3.387 5.866zM163.407 74.82h-6.774l3.387-5.867zM194.733 68.792h6.774l-3.387 5.866zM186.267 68.792h6.774l-3.387 5.866zM197.274 74.82H190.5l3.387-5.867zM190.5 75.67h6.774l-3.387 5.867zM201.507 81.698h-6.774l3.387-5.866zM198.967 75.67h6.774l-3.387 5.867zM188.807 61.06h-6.774l3.387-5.866zM156.633 61.912h6.774l-3.387 5.867zM167.64 67.94h-6.773l3.387-5.866zM182.033 61.912h6.774l-3.387 5.867zM194.733 55.033h6.774L198.12 60.9zM205.74 61.06h-6.773l3.387-5.866zM186.267 55.033h6.774l-3.387 5.867zM197.274 61.06H190.5l3.387-5.866zM165.1 61.912h6.774l-3.387 5.867zM173.567 61.912h6.774l-3.387 5.867zM184.574 67.94H177.8l3.387-5.866zM198.967 61.912h6.774l-3.387 5.867zM159.174 67.94H152.4l3.387-5.866zM256.54 102.336h-6.773l3.387-5.867zM249.767 103.187h6.774l-3.387 5.867zM203.2 82.55h6.774l-3.387 5.866zM249.767 89.43h6.774l-3.387 5.866zM203.2 68.792h6.774l-3.387 5.866zM241.3 75.67h6.774l-3.387 5.867zM270.933 96.308h6.774l-3.387 5.867zM281.94 102.336h-6.773l3.387-5.867zM262.467 96.308h6.774l-3.387 5.867zM273.474 102.336H266.7l3.387-5.867zM254 96.308h6.774l-3.387 5.867zM265.007 102.336h-6.774l3.387-5.867zM258.233 103.187h6.774l-3.387 5.867zM269.24 109.215h-6.773l3.387-5.866zM266.7 103.187h6.774l-3.387 5.867zM277.707 109.215h-6.774l3.387-5.866zM275.167 103.187h6.774l-3.387 5.867zM286.174 109.215H279.4l3.387-5.866zM260.774 109.215H254l3.387-5.866zM258.233 89.43h6.774l-3.387 5.866zM260.774 95.457H254l3.387-5.867zM273.474 74.82H266.7l3.387-5.867zM254 68.792h6.774l-3.387 5.866zM265.007 74.82h-6.774l3.387-5.867zM262.467 55.033h6.774l-3.387 5.867zM273.474 61.06H266.7l3.387-5.866zM254 55.033h6.774l-3.387 5.867zM265.007 61.06h-6.774l3.387-5.866zM258.233 61.912h6.774l-3.387 5.867zM269.24 67.94h-6.773l3.387-5.866zM266.7 61.912h6.774l-3.387 5.867zM260.774 67.94H254l3.387-5.866zM193.04 164.248h-6.773l3.387-5.866zM188.807 129.853h-6.774l3.387-5.867zM194.733 123.825h6.774l-3.387 5.866zM186.267 123.825h6.774l-3.387 5.866zM197.274 129.853H190.5l3.387-5.867zM177.8 110.067h6.774l-3.387 5.866zM188.807 116.094h-6.774l3.387-5.866zM169.333 110.067h6.774l-3.387 5.866zM180.34 116.094h-6.773l3.387-5.866zM171.874 116.094H165.1l3.387-5.866zM152.4 110.067h6.774l-3.387 5.866zM182.033 116.946h6.774l-3.387 5.866zM193.04 122.973h-6.773l3.387-5.866zM194.733 110.067h6.774l-3.387 5.866zM186.267 110.067h6.774l-3.387 5.866zM197.274 116.094H190.5l3.387-5.866zM201.507 122.973h-6.774l3.387-5.866zM165.1 116.946h6.774l-3.387 5.866zM176.107 122.973h-6.774l3.387-5.866zM173.567 116.946h6.774l-3.387 5.866zM184.574 122.973H177.8l3.387-5.866zM159.174 122.973H152.4l3.387-5.866zM245.533 137.583h6.774l-3.387 5.867zM256.54 143.611h-6.773l3.387-5.866zM228.6 123.825h6.774l-3.387 5.866zM239.607 129.853h-6.774l3.387-5.867zM232.833 130.704h6.774l-3.387 5.867zM243.84 136.732h-6.773l3.387-5.867zM237.067 123.825h6.774l-3.387 5.866zM241.3 130.704h6.774l-3.387 5.867zM252.307 136.732h-6.774l3.387-5.867zM279.4 151.342h6.774l-3.387 5.866zM290.407 157.37h-6.774l3.387-5.867zM281.94 157.37h-6.773l3.387-5.867zM298.874 157.37H292.1l3.387-5.867zM254 137.583h6.774l-3.387 5.867zM265.007 143.611h-6.774l3.387-5.866zM283.633 144.462h6.774l-3.387 5.867zM294.64 150.49h-6.773l3.387-5.866zM287.867 137.583h6.774l-3.387 5.867zM298.874 143.611H292.1l3.387-5.866zM292.1 144.462h6.774l-3.387 5.867zM286.174 150.49H279.4l3.387-5.866zM294.64 136.732h-6.773l3.387-5.867zM292.1 130.704h6.774l-3.387 5.867zM180.34 212.403h-6.773l3.387-5.867zM160.867 206.375h6.774l-3.387 5.866zM171.874 212.403H165.1l3.387-5.867zM152.4 206.375h6.774l-3.387 5.866zM163.407 212.403h-6.774l3.387-5.867zM193.04 219.282h-6.773l3.387-5.867zM165.1 213.254h6.774l-3.387 5.866zM176.107 219.282h-6.774l3.387-5.867zM173.567 213.254h6.774l-3.387 5.866zM169.333 192.617h6.774l-3.387 5.866zM160.867 192.617h6.774l-3.387 5.866zM171.874 198.644H165.1l3.387-5.866zM152.4 192.617h6.774l-3.387 5.866zM163.407 198.644h-6.774l3.387-5.866zM156.633 199.496h6.774l-3.387 5.866zM167.64 205.523h-6.773l3.387-5.866zM194.733 192.617h6.774l-3.387 5.866zM205.74 198.644h-6.773l3.387-5.866zM197.274 198.644H190.5l3.387-5.866zM201.507 205.523h-6.774l3.387-5.866zM165.1 199.496h6.774l-3.387 5.866zM173.567 199.496h6.774l-3.387 5.866zM159.174 205.523H152.4l3.387-5.866zM177.8 178.858h6.774l-3.387 5.867zM188.807 184.886h-6.774l3.387-5.866zM169.333 178.858h6.774l-3.387 5.867zM180.34 184.886h-6.773l3.387-5.866zM160.867 178.858h6.774l-3.387 5.867zM171.874 184.886H165.1l3.387-5.866zM194.733 178.858h6.774l-3.387 5.867zM186.267 178.858h6.774l-3.387 5.867zM197.274 184.886H190.5l3.387-5.866zM190.5 185.737h6.774l-3.387 5.867zM201.507 191.765h-6.774l3.387-5.866zM198.967 185.737h6.774l-3.387 5.867zM188.807 171.128h-6.774l3.387-5.867zM167.64 178.007h-6.773l3.387-5.867zM182.033 171.98h6.774l-3.387 5.866zM194.733 165.1h6.774l-3.387 5.866zM205.74 171.128h-6.773l3.387-5.867zM186.267 165.1h6.774l-3.387 5.866zM197.274 171.128H190.5l3.387-5.867zM165.1 171.98h6.774l-3.387 5.866zM173.567 171.98h6.774l-3.387 5.866zM184.574 178.007H177.8l3.387-5.867zM198.967 171.98h6.774l-3.387 5.866zM256.54 212.403h-6.773l3.387-5.867zM249.767 213.254h6.774l-3.387 5.866zM203.2 192.617h6.774l-3.387 5.866zM249.767 199.496h6.774l-3.387 5.866zM203.2 178.858h6.774l-3.387 5.867zM241.3 185.737h6.774l-3.387 5.867zM270.933 206.375h6.774l-3.387 5.866zM281.94 212.403h-6.773l3.387-5.867zM262.467 206.375h6.774l-3.387 5.866zM273.474 212.403H266.7l3.387-5.867zM254 206.375h6.774l-3.387 5.866zM265.007 212.403h-6.774l3.387-5.867zM258.233 213.254h6.774l-3.387 5.866zM269.24 219.282h-6.773l3.387-5.867zM266.7 213.254h6.774l-3.387 5.866zM277.707 219.282h-6.774l3.387-5.867zM275.167 213.254h6.774l-3.387 5.866zM286.174 219.282H279.4l3.387-5.867zM260.774 219.282H254l3.387-5.867zM258.233 199.496h6.774l-3.387 5.866zM260.774 205.523H254l3.387-5.866zM273.474 184.886H266.7l3.387-5.866zM254 178.858h6.774l-3.387 5.867zM265.007 184.886h-6.774l3.387-5.866zM262.467 165.1h6.774l-3.387 5.866zM273.474 171.128H266.7l3.387-5.867zM254 165.1h6.774l-3.387 5.866zM265.007 171.128h-6.774l3.387-5.867zM258.233 171.98h6.774l-3.387 5.866zM269.24 178.007h-6.773l3.387-5.867zM266.7 171.98h6.774l-3.387 5.866zM260.774 178.007H254l3.387-5.867zM40.64 164.248h-6.773l3.387-5.866zM16.933 137.583h6.774l-3.387 5.867zM19.474 143.611H12.7l3.387-5.866zM36.407 129.853h-6.774l3.387-5.867zM8.467 123.825h6.774l-3.387 5.866zM19.474 129.853H12.7l3.387-5.867zM0 123.825h6.774l-3.387 5.866zM11.007 129.853H4.233l3.387-5.867zM4.233 130.704h6.774l-3.387 5.867zM15.24 136.732H8.468l3.387-5.867zM12.7 130.704h6.774l-3.387 5.867zM23.707 136.732h-6.774l3.387-5.867zM21.167 130.704h6.774l-3.387 5.867zM6.774 136.732H0l3.387-5.867zM25.4 110.067h6.774l-3.387 5.866zM36.407 116.094h-6.774l3.387-5.866zM16.933 110.067h6.774l-3.387 5.866zM27.94 116.094h-6.773l3.387-5.866zM19.474 116.094H12.7l3.387-5.866zM0 110.067h6.774l-3.387 5.866zM29.633 116.946h6.774l-3.387 5.866zM12.7 116.946h6.774l-3.387 5.866zM23.707 122.973h-6.774l3.387-5.866zM21.167 116.946h6.774l-3.387 5.866zM32.174 122.973H25.4l3.387-5.866zM6.774 122.973H0l3.387-5.866zM93.133 137.583h6.774l-3.387 5.867zM104.14 143.611h-6.773l3.387-5.866zM80.433 130.704h6.774l-3.387 5.867zM91.44 136.732h-6.773l3.387-5.867zM88.9 130.704h6.774l-3.387 5.867zM99.907 136.732h-6.774l3.387-5.867zM76.2 110.067h6.774l-3.387 5.866zM87.207 116.094h-6.774l3.387-5.866zM93.133 110.067h6.774l-3.387 5.866zM84.667 110.067h6.774l-3.387 5.866zM95.674 116.094H88.9l3.387-5.866zM127 151.342h6.774l-3.387 5.866zM138.007 157.37h-6.774l3.387-5.867zM129.54 157.37h-6.773l3.387-5.867zM146.474 157.37H139.7l3.387-5.867zM101.6 137.583h6.774l-3.387 5.867zM112.607 143.611h-6.774l3.387-5.866zM131.233 144.462h6.774l-3.387 5.867zM142.24 150.49h-6.773l3.387-5.866zM143.933 137.583h6.774l-3.387 5.867zM135.467 137.583h6.774l-3.387 5.867zM146.474 143.611H139.7l3.387-5.866zM139.7 144.462h6.774l-3.387 5.867zM150.707 150.49h-6.774l3.387-5.866zM133.774 150.49H127l3.387-5.866zM142.24 136.732h-6.773l3.387-5.867zM139.7 130.704h6.774l-3.387 5.867zM150.707 136.732h-6.774l3.387-5.867zM27.94 212.403h-6.773l3.387-5.867zM8.467 206.375h6.774l-3.387 5.866zM19.474 212.403H12.7l3.387-5.867zM0 206.375h6.774l-3.387 5.866zM11.007 212.403H4.233l3.387-5.867zM40.64 219.282h-6.773l3.387-5.867zM42.333 206.375h6.774l-3.387 5.866zM53.34 212.403h-6.773l3.387-5.867zM44.874 212.403H38.1l3.387-5.867zM38.1 213.254h6.774l-3.387 5.866zM49.107 219.282h-6.774l3.387-5.867zM12.7 213.254h6.774l-3.387 5.866zM23.707 219.282h-6.774l3.387-5.867zM21.167 213.254h6.774l-3.387 5.866zM46.567 213.254h6.774l-3.387 5.866zM16.933 192.617h6.774l-3.387 5.866zM8.467 192.617h6.774l-3.387 5.866zM19.474 198.644H12.7l3.387-5.866zM0 192.617h6.774l-3.387 5.866zM11.007 198.644H4.233l3.387-5.866zM4.233 199.496h6.774l-3.387 5.866zM15.24 205.523H8.468l3.387-5.866zM42.333 192.617h6.774l-3.387 5.866zM53.34 198.644h-6.773l3.387-5.866zM44.874 198.644H38.1l3.387-5.866zM49.107 205.523h-6.774l3.387-5.866zM12.7 199.496h6.774l-3.387 5.866zM21.167 199.496h6.774l-3.387 5.866zM6.774 205.523H0l3.387-5.866zM36.407 184.886h-6.774l3.387-5.866zM0 178.858h6.774l-3.387 5.867zM11.007 184.886H4.233l3.387-5.866zM42.333 178.858h6.774l-3.387 5.867zM33.867 178.858h6.774l-3.387 5.867zM44.874 184.886H38.1l3.387-5.866zM38.1 185.737h6.774l-3.387 5.867zM49.107 191.765h-6.774l3.387-5.866zM46.567 185.737h6.774l-3.387 5.867zM36.407 171.128h-6.774l3.387-5.867zM4.233 171.98h6.774l-3.387 5.866zM29.633 171.98h6.774l-3.387 5.866zM42.333 165.1h6.774l-3.387 5.866zM53.34 171.128h-6.773l3.387-5.867zM33.867 165.1h6.774l-3.387 5.866zM44.874 171.128H38.1l3.387-5.867zM46.567 171.98h6.774l-3.387 5.866zM6.774 178.007H0l3.387-5.867zM97.367 213.254h6.774l-3.387 5.866zM57.574 219.282H50.8l3.387-5.867zM50.8 192.617h6.774l-3.387 5.866zM50.8 178.858h6.774l-3.387 5.867zM88.9 185.737h6.774l-3.387 5.867zM118.533 206.375h6.774l-3.387 5.866zM129.54 212.403h-6.773l3.387-5.867zM121.074 212.403H114.3l3.387-5.867zM105.833 213.254h6.774l-3.387 5.866zM116.84 219.282h-6.773l3.387-5.867zM114.3 213.254h6.774l-3.387 5.866zM125.307 219.282h-6.774l3.387-5.867zM122.767 213.254h6.774l-3.387 5.866zM133.774 219.282H127l3.387-5.867zM108.374 219.282H101.6l3.387-5.867zM121.074 184.886H114.3l3.387-5.866zM101.6 178.858h6.774l-3.387 5.867zM112.607 184.886h-6.774l3.387-5.866zM110.067 165.1h6.774l-3.387 5.866zM121.074 171.128H114.3l3.387-5.867zM101.6 165.1h6.774l-3.387 5.866zM112.607 171.128h-6.774l3.387-5.867zM105.833 171.98h6.774l-3.387 5.866zM116.84 178.007h-6.773l3.387-5.867zM114.3 171.98h6.774l-3.387 5.866zM108.374 178.007H101.6l3.387-5.867z"/>
  </g>
</svg>
